[Header]
FileType HTR
DataType HTRS
FileVersion 1
NumSegments 64
NumFrames 4
DataFrameRate 24
EulerRotationOrder ZYX
CalibrationUnits mm
RotationUnits Degrees
GlobalAxisofGravity Y
BoneLengthAxis Y
ScaleFactor 1.0
[SegmentNames&Hierarchy]
Hips	GLOBAL
Spine	Hips
Spine1	Spine
Spine2	Spine1
Neck	Spine2
Head	Neck
LeftEye	Head
RightEye	Head
LeftShoulder	Spine2
LeftArm	LeftShoulder
LeftForeArm	LeftArm
LeftHand	LeftForeArm
LeftHandThumb1	LeftHand
LeftHandThumb2	LeftHandThumb1
LeftHandThumb3	LeftHandThumb2
LeftHandThumb4	LeftHandThumb3
LeftHandIndex1	LeftHand
LeftHandIndex2	LeftHandIndex1
LeftHandIndex3	LeftHandIndex2
LeftHandIndex4	LeftHandIndex3
LeftHandMiddle1	LeftHand
LeftHandMiddle2	LeftHandMiddle1
LeftHandMiddle3	LeftHandMiddle2
LeftHandMiddle4	LeftHandMiddle3
LeftHandRing1	LeftHand
LeftHandRing2	LeftHandRing1
LeftHandRing3	LeftHandRing2
LeftHandRing4	LeftHandRing3
LeftHandPinky1	LeftHand
LeftHandPinky2	LeftHandPinky1
LeftHandPinky3	LeftHandPinky2
LeftHandPinky4	LeftHandPinky3
RightShoulder	Spine2
RightArm	RightShoulder
RightForeArm	RightArm
RightHand	RightForeArm
RightHandPinky1	RightHand
RightHandPinky2	RightHandPinky1
RightHandPinky3	RightHandPinky2
RightHandPinky4	RightHandPinky3
RightHandRing1	RightHand
RightHandRing2	RightHandRing1
RightHandRing3	RightHandRing2
RightHandRing4	RightHandRing3
RightHandMiddle1	RightHand
RightHandMiddle2	RightHandMiddle1
RightHandMiddle3	RightHandMiddle2
RightHandMiddle4	RightHandMiddle3
RightHandIndex1	RightHand
RightHandIndex2	RightHandIndex1
RightHandIndex3	RightHandIndex2
RightHandIndex4	RightHandIndex3
RightHandThumb1	RightHand
RightHandThumb2	RightHandThumb1
RightHandThumb3	RightHandThumb2
RightHandThumb4	RightHandThumb3
LeftUpLeg	Hips
LeftLeg	LeftUpLeg
LeftFoot	LeftLeg
LeftToeBase	LeftFoot
RightUpLeg	Hips
RightLeg	RightUpLeg
RightFoot	RightLeg
RightToeBase	RightFoot
[BasePosition]
Hips	0	0	0	0	0	0	1
Spine	0	0	0	0	0	0	1
Spine1	0	0	0	0	0	0	1
Spine2	0	0	0	0	0	0	1
Neck	0	0	0	0	0	0	1
Head	0	0	0	0	0	0	1
LeftEye	0	0	0	0	0	0	1
RightEye	0	0	0	0	0	0	1
LeftShoulder	0	0	0	0	0	0	1
LeftArm	0	0	0	0	0	0	1
LeftForeArm	0	0	0	0	0	0	1
LeftHand	0	0	0	0	0	0	1
LeftHandThumb1	0	0	0	0	0	0	1
LeftHandThumb2	0	0	0	0	0	0	1
LeftHandThumb3	0	0	0	0	0	0	1
LeftHandThumb4	0	0	0	0	0	0	1
LeftHandIndex1	0	0	0	0	0	0	1
LeftHandIndex2	0	0	0	0	0	0	1
LeftHandIndex3	0	0	0	0	0	0	1
LeftHandIndex4	0	0	0	0	0	0	1
LeftHandMiddle1	0	0	0	0	0	0	1
LeftHandMiddle2	0	0	0	0	0	0	1
LeftHandMiddle3	0	0	0	0	0	0	1
LeftHandMiddle4	0	0	0	0	0	0	1
LeftHandRing1	0	0	0	0	0	0	1
LeftHandRing2	0	0	0	0	0	0	1
LeftHandRing3	0	0	0	0	0	0	1
LeftHandRing4	0	0	0	0	0	0	1
LeftHandPinky1	0	0	0	0	0	0	1
LeftHandPinky2	0	0	0	0	0	0	1
LeftHandPinky3	0	0	0	0	0	0	1
LeftHandPinky4	0	0	0	0	0	0	1
RightShoulder	0	0	0	0	0	0	1
RightArm	0	0	0	0	0	0	1
RightForeArm	0	0	0	0	0	0	1
RightHand	0	0	0	0	0	0	1
RightHandPinky1	0	0	0	0	0	0	1
RightHandPinky2	0	0	0	0	0	0	1
RightHandPinky3	0	0	0	0	0	0	1
RightHandPinky4	0	0	0	0	0	0	1
RightHandRing1	0	0	0	0	0	0	1
RightHandRing2	0	0	0	0	0	0	1
RightHandRing3	0	0	0	0	0	0	1
RightHandRing4	0	0	0	0	0	0	1
RightHandMiddle1	0	0	0	0	0	0	1
RightHandMiddle2	0	0	0	0	0	0	1
RightHandMiddle3	0	0	0	0	0	0	1
RightHandMiddle4	0	0	0	0	0	0	1
RightHandIndex1	0	0	0	0	0	0	1
RightHandIndex2	0	0	0	0	0	0	1
RightHandIndex3	0	0	0	0	0	0	1
RightHandIndex4	0	0	0	0	0	0	1
RightHandThumb1	0	0	0	0	0	0	1
RightHandThumb2	0	0	0	0	0	0	1
RightHandThumb3	0	0	0	0	0	0	1
RightHandThumb4	0	0	0	0	0	0	1
LeftUpLeg	0	0	0	0	0	0	1
LeftLeg	0	0	0	0	0	0	1
LeftFoot	0	0	0	0	0	0	1
LeftToeBase	0	0	0	0	0	0	1
RightUpLeg	0	0	0	0	0	0	1
RightLeg	0	0	0	0	0	0	1
RightFoot	0	0	0	0	0	0	1
RightToeBase	0	0	0	0	0	0	1
[Hips]
13	1.47667551	1034.189087	15.43923378	-3.251720428	-5.896883011	-3.480146408	1.0
14	1.390930414	1034.171387	15.52653408	-3.234540224	-5.920563698	-3.49508667	1.0
15	1.28539753	1034.161255	15.63474464	-3.209131718	-5.927675247	-3.506364584	1.0
16	1.172444344	1034.151733	15.74551392	-3.18209219	-5.930114269	-3.517132759	1.0
[Spine]
13	0	101.8159943	1.315000057	3.286746025	1.203752995	2.736011744	1.0
14	0	101.8159943	1.315000057	3.308320045	1.209554315	2.734218836	1.0
15	0	101.8159943	1.315000057	3.327584743	1.220709324	2.733996391	1.0
16	0	101.8159943	1.315000057	3.347048044	1.2334131	2.734041214	1.0
[Spine1]
13	0	100.8349991	-10.00800037	1.137413263	0.2337230593	1.529264688	1.0
14	0	100.8349991	-10.00800037	1.144721746	0.2360624075	1.527831316	1.0
15	0	100.8349991	-10.00800037	1.150644183	0.2405861616	1.527026176	1.0
16	0	100.8349991	-10.00800037	1.1565063	0.2457473725	1.526344895	1.0
[Spine2]
13	0	91	-13.73399925	1.112198353	0.2563599646	1.533035278	1.0
14	0	91	-13.73399925	1.119509816	0.2586903572	1.531576753	1.0
15	0	91	-13.73399925	1.125431776	0.2632099986	1.530731678	1.0
16	0	91	-13.73399925	1.131292462	0.2683686912	1.53000617	1.0
[Neck]
13	0	166.7169952	-25.16200066	5.518733025	-0.1381801814	0.5028562546	1.0
14	0	166.7169952	-25.16200066	5.514693737	-0.1447697133	0.5138984919	1.0
15	0	166.7169952	-25.16200066	5.516457558	-0.1463209838	0.5194550157	1.0
16	0	166.7169952	-25.16200066	5.52016449	-0.1468016952	0.52393049	1.0
[Head]
13	0	96.17900085	16.84999847	-7.640135288	1.219528079	-0.2069399953	1.0
14	0	96.17900085	16.84999847	-7.675512314	1.201215148	-0.1912398636	1.0
15	0	96.17900085	16.84999847	-7.693638802	1.211319447	-0.2037229389	1.0
16	0	96.17900085	16.84999847	-7.707258701	1.228087902	-0.2228787094	1.0
[LeftEye]
13	30.6760006	64.09500122	92.83599854	0	0	0	1.0
14	30.6760006	64.09500122	92.83599854	0	0	0	1.0
15	30.6760006	64.09500122	92.83599854	0	0	0	1.0
16	30.6760006	64.09500122	92.83599854	0	0	0	1.0
[RightEye]
13	-30.6760006	64.09500122	92.83499908	0	0	0	1.0
14	-30.6760006	64.09500122	92.83499908	0	0	0	1.0
15	-30.6760006	64.09500122	92.83499908	0	0	0	1.0
16	-30.6760006	64.09500122	92.83499908	0	0	0	1.0
[LeftShoulder]
13	45.70400238	109.4599991	-26.28000069	4.866662025	-16.85001183	-12.98515606	1.0
14	45.70400238	109.4599991	-26.28000069	4.865859509	-16.84294701	-12.98322201	1.0
15	45.70400238	109.4599991	-26.28000069	4.868098736	-16.82759094	-13.0004425	1.0
16	45.70400238	109.4599991	-26.28000069	4.871199131	-16.81068039	-13.02280235	1.0
[LeftArm]
13	105.923996	-5.24600029	-22.32099915	20.43919373	-2.830630302	-71.16343689	1.0
14	105.923996	-5.24600029	-22.32099915	20.43006134	-2.843610048	-71.15609741	1.0
15	105.923996	-5.24600029	-22.32099915	20.40979576	-2.885296583	-71.12461853	1.0
16	105.923996	-5.24600029	-22.32099915	20.3869133	-2.933684349	-71.08599091	1.0
[LeftForeArm]
13	278.414978	-0.0009999999311	0	-1.829026587e-06	-1.367087126	-0.0001901287469	1.0
14	278.414978	-0.0009999999311	0	7.97417124e-06	-1.37210393	-0.0001890006097	1.0
15	278.414978	-0.0009999999311	0	9.82695019e-06	-1.379264355	-0.0001921299554	1.0
16	278.414978	-0.0009999999311	0	1.040066127e-05	-1.387048602	-0.0001972456521	1.0
[LeftHand]
13	283.2879944	0	0	-32.7973175	-4.313501358	-4.648158073	1.0
14	283.2879944	0	0	-32.83712769	-4.333291054	-4.618023396	1.0
15	283.2879944	0	0	-32.83557129	-4.335732937	-4.596486092	1.0
16	283.2879944	0	0	-32.82610703	-4.335145473	-4.576181889	1.0
[LeftHandThumb1]
13	24.6609993	-15.75	26.8239994	-0.4889889657	2.201390743	4.818541527	1.0
14	24.6609993	-15.75	26.8239994	-0.4889889657	2.201390743	4.818541527	1.0
15	24.6609993	-15.75	26.8239994	-0.4889889657	2.201390743	4.818541527	1.0
16	24.6609993	-15.75	26.8239994	-0.4889889657	2.201390743	4.818541527	1.0
[LeftHandThumb2]
13	32.29800034	-18.64699936	18.64699936	19.88581276	19.96446037	23.26738167	1.0
14	32.29800034	-18.64699936	18.64699936	19.88581276	19.96446037	23.26738167	1.0
15	32.29800034	-18.64699936	18.64699936	19.88581276	19.96446037	23.26738167	1.0
16	32.29800034	-18.64699936	18.64699936	19.88581276	19.96446037	23.26738167	1.0
[LeftHandThumb3]
13	26.52600098	-15.31499958	15.31499958	-13.14535904	5.551738262	7.967928886	1.0
14	26.52600098	-15.31499958	15.31499958	-13.14535904	5.551738262	7.967928886	1.0
15	26.52600098	-15.31499958	15.31499958	-13.14535904	5.551738262	7.967928886	1.0
16	26.52600098	-15.31499958	15.31499958	-13.14535904	5.551738262	7.967928886	1.0
[LeftHandThumb4]
13	19.54599953	-11.28499985	11.28499985	0	0	0	1.0
14	19.54599953	-11.28499985	11.28499985	0	0	0	1.0
15	19.54599953	-11.28499985	11.28499985	0	0	0	1.0
16	19.54599953	-11.28499985	11.28499985	0	0	0	1.0
[LeftHandIndex1]
13	91.09299469	-5.170999527	22.60099792	0.1480516791	-0.9618676901	-7.594518185	1.0
14	91.09299469	-5.170999527	22.60099792	0.1480516791	-0.9618676901	-7.594518185	1.0
15	91.09299469	-5.170999527	22.60099792	0.1480516791	-0.9618676901	-7.594518185	1.0
16	91.09299469	-5.170999527	22.60099792	0.1480516791	-0.9618676901	-7.594518185	1.0
[LeftHandIndex2]
13	36.76399994	0	0	-0.2667043209	1.745171905	-17.37646866	1.0
14	36.76399994	0	0	-0.2667043209	1.745171905	-17.37646866	1.0
15	36.76399994	0	0	-0.2667043209	1.745171905	-17.37646866	1.0
16	36.76399994	0	0	-0.2667043209	1.745171905	-17.37646866	1.0
[LeftHandIndex3]
13	28.83100128	0	0	-0.05742863193	0.817338407	-8.038370132	1.0
14	28.83100128	0	0	-0.05742863193	0.817338407	-8.038370132	1.0
15	28.83100128	0	0	-0.05742863193	0.817338407	-8.038370132	1.0
16	28.83100128	0	0	-0.05742863193	0.817338407	-8.038370132	1.0
[LeftHandIndex4]
13	23.92700005	0	0	0	0	0	1.0
14	23.92700005	0	0	0	0	0	1.0
15	23.92700005	0	0	0	0	0	1.0
16	23.92700005	0	0	0	0	0	1.0
[LeftHandMiddle1]
13	95.33399963	0	0	-0.7942916155	2.538622379	-15.71737862	1.0
14	95.33399963	0	0	-0.7942916155	2.538622379	-15.71737862	1.0
15	95.33399963	0	0	-0.7942916155	2.538622379	-15.71737862	1.0
16	95.33399963	0	0	-0.7942916155	2.538622379	-15.71737862	1.0
[LeftHandMiddle2]
13	36.98199844	0	0	-0.267610997	1.748071074	-17.40625954	1.0
14	36.98199844	0	0	-0.267610997	1.748071074	-17.40625954	1.0
15	36.98199844	0	0	-0.267610997	1.748071074	-17.40625954	1.0
16	36.98199844	0	0	-0.267610997	1.748071074	-17.40625954	1.0
[LeftHandMiddle3]
13	29.50900078	0	0	-0.2992140949	1.84580946	-18.41413307	1.0
14	29.50900078	0	0	-0.2992140949	1.84580946	-18.41413307	1.0
15	29.50900078	0	0	-0.2992140949	1.84580946	-18.41413307	1.0
16	29.50900078	0	0	-0.2992140949	1.84580946	-18.41413307	1.0
[LeftHandMiddle4]
13	28.3390007	0	0	0	0	0	1.0
14	28.3390007	0	0	0	0	0	1.0
15	28.3390007	0	0	0	0	0	1.0
16	28.3390007	0	0	0	0	0	1.0
[LeftHandRing1]
13	91.04499817	-0.4390000105	-18.65100098	-1.184956431	3.436642885	-21.16632462	1.0
14	91.04499817	-0.4390000105	-18.65100098	-1.184956431	3.436642885	-21.16632462	1.0
15	91.04499817	-0.4390000105	-18.65100098	-1.184956431	3.436642885	-21.16632462	1.0
16	91.04499817	-0.4390000105	-18.65100098	-1.184956431	3.436642885	-21.16632462	1.0
[LeftHandRing2]
13	31.54000092	0	0	-0.3849357069	2.085560799	-20.91281319	1.0
14	31.54000092	0	0	-0.3849357069	2.085560799	-20.91281319	1.0
15	31.54000092	0	0	-0.3849357069	2.085560799	-20.91281319	1.0
16	31.54000092	0	0	-0.3849357069	2.085560799	-20.91281319	1.0
[LeftHandRing3]
13	29.37700081	0	0	-0.2818065584	1.792707562	-17.86576271	1.0
14	29.37700081	0	0	-0.2818065584	1.792707562	-17.86576271	1.0
15	29.37700081	0	0	-0.2818065584	1.792707562	-17.86576271	1.0
16	29.37700081	0	0	-0.2818065584	1.792707562	-17.86576271	1.0
[LeftHandRing4]
13	26.47500038	0	0	0	0	0	1.0
14	26.47500038	0	0	0	0	0	1.0
15	26.47500038	0	0	0	0	0	1.0
16	26.47500038	0	0	0	0	0	1.0
[LeftHandPinky1]
13	80.77799988	-4.887000084	-38.06099701	-1.708467126	5.355370045	-27.1653862	1.0
14	80.77799988	-4.887000084	-38.06099701	-1.708467126	5.355370045	-27.1653862	1.0
15	80.77799988	-4.887000084	-38.06099701	-1.708467126	5.355370045	-27.1653862	1.0
16	80.77799988	-4.887000084	-38.06099701	-1.708467126	5.355370045	-27.1653862	1.0
[LeftHandPinky2]
13	36	0	0	-0.2676221728	1.748113751	-17.40663528	1.0
14	36	0	0	-0.2676221728	1.748113751	-17.40663528	1.0
15	36	0	0	-0.2676221728	1.748113751	-17.40663528	1.0
16	36	0	0	-0.2676221728	1.748113751	-17.40663528	1.0
[LeftHandPinky3]
13	21.14200211	0	0	-0.2408525199	1.660349369	-16.50663185	1.0
14	21.14200211	0	0	-0.2408525199	1.660349369	-16.50663185	1.0
15	21.14200211	0	0	-0.2408525199	1.660349369	-16.50663185	1.0
16	21.14200211	0	0	-0.2408525199	1.660349369	-16.50663185	1.0
[LeftHandPinky4]
13	19.75699997	0	0	0	0	0	1.0
14	19.75699997	0	0	0	0	0	1.0
15	19.75699997	0	0	0	0	0	1.0
16	19.75699997	0	0	0	0	0	1.0
[RightShoulder]
13	-45.70000076	109.4620056	-26.28000069	5.145802498	14.37440681	15.37220192	1.0
14	-45.70000076	109.4620056	-26.28000069	5.150736332	14.38217735	15.3979826	1.0
15	-45.70000076	109.4620056	-26.28000069	5.156090736	14.38629341	15.42830181	1.0
16	-45.70000076	109.4620056	-26.28000069	5.161751747	14.39031887	15.46053696	1.0
[RightArm]
13	-105.9280014	-5.248000145	-22.32099915	30.49937057	2.296067715	62.45988846	1.0
14	-105.9280014	-5.248000145	-22.32099915	30.49677658	2.28366375	62.45933533	1.0
15	-105.9280014	-5.248000145	-22.32099915	30.4821682	2.263586521	62.45775604	1.0
16	-105.9280014	-5.248000145	-22.32099915	30.46439552	2.240917683	62.45570755	1.0
[RightForeArm]
13	-278.414978	0	0	-5.028982741e-07	6.700941086	8.510596672e-06	1.0
14	-278.414978	0	0	-7.003304745e-06	6.708718777	-7.976775578e-07	1.0
15	-278.414978	0	0	-7.563931376e-06	6.717848301	-2.28376075e-06	1.0
16	-278.414978	0	0	-7.009560704e-06	6.727331638	-2.576387487e-06	1.0
[RightHand]
13	-283.2879944	0	0.0009999999311	-19.92099762	1.876322746	6.585889339	1.0
14	-283.2879944	0	0.0009999999311	-19.92784119	1.885574698	6.585484028	1.0
15	-283.2879944	0	0.0009999999311	-19.93900108	1.887910128	6.590252876	1.0
16	-283.2879944	0	0.0009999999311	-19.95165634	1.888982892	6.596603394	1.0
[RightHandPinky1]
13	-80.76699829	-4.885000229	-38.06000137	-1.507175922	-4.696118355	26.50587463	1.0
14	-80.76699829	-4.885000229	-38.06000137	-1.507175922	-4.696118355	26.50587463	1.0
15	-80.76699829	-4.885000229	-38.06000137	-1.507175922	-4.696118355	26.50587463	1.0
16	-80.76699829	-4.885000229	-38.06000137	-1.507175922	-4.696118355	26.50587463	1.0
[RightHandPinky2]
13	-36	0	0.0009999999311	-0.2127676606	-1.388874292	17.43785858	1.0
14	-36	0	0.0009999999311	-0.2127676606	-1.388874292	17.43785858	1.0
15	-36	0	0.0009999999311	-0.2127676606	-1.388874292	17.43785858	1.0
16	-36	0	0.0009999999311	-0.2127676606	-1.388874292	17.43785858	1.0
[RightHandPinky3]
13	-21.14200211	0	0	-0.1919144988	-1.32059598	16.53641129	1.0
14	-21.14200211	0	0	-0.1919144988	-1.32059598	16.53641129	1.0
15	-21.14200211	0	0	-0.1919144988	-1.32059598	16.53641129	1.0
16	-21.14200211	0	0	-0.1919144988	-1.32059598	16.53641129	1.0
[RightHandPinky4]
13	-19.75699997	0	0	0	0	0	1.0
14	-19.75699997	0	0	0	0	0	1.0
15	-19.75699997	0	0	0	0	0	1.0
16	-19.75699997	0	0	0	0	0	1.0
[RightHandRing1]
13	-91.03599548	-0.4390000105	-18.65100098	-1.045235753	-2.883111477	20.47788429	1.0
14	-91.03599548	-0.4390000105	-18.65100098	-1.045235753	-2.883111477	20.47788429	1.0
15	-91.03599548	-0.4390000105	-18.65100098	-1.045235753	-2.883111477	20.47788429	1.0
16	-91.03599548	-0.4390000105	-18.65100098	-1.045235753	-2.883111477	20.47788429	1.0
[RightHandRing2]
13	-31.54000092	0	0	-0.3066971898	-1.658752441	20.94926834	1.0
14	-31.54000092	0	0	-0.3066971898	-1.658752441	20.94926834	1.0
15	-31.54000092	0	0	-0.3066971898	-1.658752441	20.94926834	1.0
16	-31.54000092	0	0	-0.3066971898	-1.658752441	20.94926834	1.0
[RightHandRing3]
13	-29.37700081	0	0	-0.2245407403	-1.425854325	17.89771652	1.0
14	-29.37700081	0	0	-0.2245407403	-1.425854325	17.89771652	1.0
15	-29.37700081	0	0	-0.2245407403	-1.425854325	17.89771652	1.0
16	-29.37700081	0	0	-0.2245407403	-1.425854325	17.89771652	1.0
[RightHandRing4]
13	-26.47500038	0	0	0	0	0	1.0
14	-26.47500038	0	0	0	0	0	1.0
15	-26.47500038	0	0	0	0	0	1.0
16	-26.47500038	0	0	0	0	0	1.0
[RightHandMiddle1]
13	-95.32500458	0	0	-0.7017197609	-2.087752104	15.0152874	1.0
14	-95.32500458	0	0	-0.7017197609	-2.087752104	15.0152874	1.0
15	-95.32500458	0	0	-0.7017197609	-2.087752104	15.0152874	1.0
16	-95.32500458	0	0	-0.7017197609	-2.087752104	15.0152874	1.0
[RightHandMiddle2]
13	-36.98199844	0	0	-0.213228479	-1.390354872	17.43750381	1.0
14	-36.98199844	0	0	-0.213228479	-1.390354872	17.43750381	1.0
15	-36.98199844	0	0	-0.213228479	-1.390354872	17.43750381	1.0
16	-36.98199844	0	0	-0.213228479	-1.390354872	17.43750381	1.0
[RightHandMiddle3]
13	-29.50900078	0	0	-0.2384106964	-1.470119596	18.44692802	1.0
14	-29.50900078	0	0	-0.2384106964	-1.470119596	18.44692802	1.0
15	-29.50900078	0	0	-0.2384106964	-1.470119596	18.44692802	1.0
16	-29.50900078	0	0	-0.2384106964	-1.470119596	18.44692802	1.0
[RightHandMiddle4]
13	-28.3390007	0	0.0009999999311	0	0	0	1.0
14	-28.3390007	0	0.0009999999311	0	0	0	1.0
15	-28.3390007	0	0.0009999999311	0	0	0	1.0
16	-28.3390007	0	0.0009999999311	0	0	0	1.0
[RightHandIndex1]
13	-91.08300018	-5.167999744	22.60099792	0.1884763837	1.25192976	6.825599194	1.0
14	-91.08300018	-5.167999744	22.60099792	0.1884763837	1.25192976	6.825599194	1.0
15	-91.08300018	-5.167999744	22.60099792	0.1884763837	1.25192976	6.825599194	1.0
16	-91.08300018	-5.167999744	22.60099792	0.1884763837	1.25192976	6.825599194	1.0
[RightHandIndex2]
13	-36.76399994	0	0	-0.2125098109	-1.388050556	17.40767097	1.0
14	-36.76399994	0	0	-0.2125098109	-1.388050556	17.40767097	1.0
15	-36.76399994	0	0	-0.2125098109	-1.388050556	17.40767097	1.0
16	-36.76399994	0	0	-0.2125098109	-1.388050556	17.40767097	1.0
[RightHandIndex3]
13	-28.83100128	0	0	-0.04576345533	-0.650116384	8.053516388	1.0
14	-28.83100128	0	0	-0.04576345533	-0.650116384	8.053516388	1.0
15	-28.83100128	0	0	-0.04576345533	-0.650116384	8.053516388	1.0
16	-28.83100128	0	0	-0.04576345533	-0.650116384	8.053516388	1.0
[RightHandIndex4]
13	-23.92700005	0	0	0	0	0	1.0
14	-23.92700005	0	0	0	0	0	1.0
15	-23.92700005	0	0	0	0	0	1.0
16	-23.92700005	0	0	0	0	0	1.0
[RightHandThumb1]
13	-24.64799881	-15.72700024	26.82600021	-1.658462524	-0.2891407609	-4.221328735	1.0
14	-24.64799881	-15.72700024	26.82600021	-1.658462524	-0.2891407609	-4.221328735	1.0
15	-24.64799881	-15.72700024	26.82600021	-1.658462524	-0.2891407609	-4.221328735	1.0
16	-24.64799881	-15.72700024	26.82600021	-1.658462524	-0.2891407609	-4.221328735	1.0
[RightHandThumb2]
13	-32.29800034	-18.64699936	18.64699936	22.25259209	-23.88967514	-24.282444	1.0
14	-32.29800034	-18.64699936	18.64699936	22.25259209	-23.88967514	-24.282444	1.0
15	-32.29800034	-18.64699936	18.64699936	22.25259209	-23.88967514	-24.282444	1.0
16	-32.29800034	-18.64699936	18.64699936	22.25259209	-23.88967514	-24.282444	1.0
[RightHandThumb3]
13	-26.52600098	-15.31399918	15.31399918	-14.47830296	-6.743862152	-11.36570263	1.0
14	-26.52600098	-15.31399918	15.31399918	-14.47830296	-6.743862152	-11.36570263	1.0
15	-26.52600098	-15.31399918	15.31399918	-14.47830296	-6.743862152	-11.36570263	1.0
16	-26.52600098	-15.31399918	15.31399918	-14.47830296	-6.743862152	-11.36570263	1.0
[RightHandThumb4]
13	-19.54599953	-11.28499985	11.28499985	0	0	0	1.0
14	-19.54599953	-11.28499985	11.28499985	0	0	0	1.0
15	-19.54599953	-11.28499985	11.28499985	0	0	0	1.0
16	-19.54599953	-11.28499985	11.28499985	0	0	0	1.0
[LeftUpLeg]
13	82.07800293	-67.51699829	-15.99599934	-8.33231926	16.29278374	7.850073814	1.0
14	82.07800293	-67.51699829	-15.99599934	-8.35447979	16.3132515	7.871432781	1.0
15	82.07800293	-67.51699829	-15.99599934	-8.380251884	16.32565308	7.884554386	1.0
16	82.07800293	-67.51699829	-15.99599934	-8.407291412	16.33635712	7.896113873	1.0
[LeftLeg]
13	0	-443.7049866	2.845999956	12.32679558	1.488193035	4.557482719	1.0
14	0	-443.7049866	2.845999956	12.35996151	1.488115549	4.557065964	1.0
15	0	-443.7049866	2.845999956	12.37561321	1.483345866	4.556959629	1.0
16	0	-443.7049866	2.845999956	12.38791275	1.476629019	4.556964874	1.0
[LeftFoot]
13	0	-444.2789917	-29.8219986	1.129341483	0.6719720364	-7.150449276	1.0
14	0	-444.2789917	-29.8219986	1.11110425	0.6716946363	-7.153958321	1.0
15	0	-444.2789917	-29.8219986	1.100880861	0.6719788313	-7.159687519	1.0
16	0	-444.2789917	-29.8219986	1.092195034	0.6723721623	-7.165848732	1.0
[LeftToeBase]
13	0	-87.28699493	107.1060028	-4.928624153	8.59827378e-06	-1.533009481e-06	1.0
14	0	-87.28699493	107.1060028	-4.930873394	1.160257852e-05	2.163554882e-07	1.0
15	0	-87.28699493	107.1060028	-4.929121494	6.970949926e-06	1.248206217e-06	1.0
16	0	-87.28699493	107.1060028	-4.926208973	8.833840326e-08	2.30765113e-06	1.0
[RightUpLeg]
13	-82.07800293	-67.51699829	-15.99599934	0.0877840519	-10.38539886	3.495307922	1.0
14	-82.07800293	-67.51699829	-15.99599934	0.08112820238	-10.37263203	3.52009964	1.0
15	-82.07800293	-67.51699829	-15.99599934	0.07091616839	-10.36713982	3.540230513	1.0
16	-82.07800293	-67.51699829	-15.99599934	0.05963794887	-10.36318588	3.559902668	1.0
[RightLeg]
13	0	-443.7049866	2.861999989	7.58379364	-9.296895981	-4.472812653	1.0
14	0	-443.7049866	2.861999989	7.572796345	-9.301780701	-4.474915028	1.0
15	0	-443.7049866	2.861999989	7.555557251	-9.305362701	-4.469441414	1.0
16	0	-443.7049866	2.861999989	7.537846088	-9.308533669	-4.462470055	1.0
[RightFoot]
13	0	-444.2770081	-29.83799934	-3.55367589	-1.066412687	3.253575325	1.0
14	0	-444.2770081	-29.83799934	-3.552054405	-1.055468559	3.249598265	1.0
15	0	-444.2770081	-29.83799934	-3.550835848	-1.053051353	3.242029667	1.0
16	0	-444.2770081	-29.83799934	-3.550256014	-1.053518534	3.233579636	1.0
[RightToeBase]
13	0	-87.28699493	107.1060028	-7.178663254	1.127620817e-05	2.149181455e-08	1.0
14	0	-87.28699493	107.1060028	-7.173967361	1.229093505e-05	1.102129886e-06	1.0
15	0	-87.28699493	107.1060028	-7.170537949	9.103970115e-06	1.016033593e-06	1.0
16	0	-87.28699493	107.1060028	-7.167526722	4.495770554e-06	7.149201906e-07	1.0
[EndOfFile]
